<?xml version="1.0" encoding="utf-8"?>
<!-- Generator: Adobe Illustrator 21.1.0, SVG Export Plug-In . SVG Version: 6.00 Build 0)  -->
<svg version="1.1" id="圖層_1" xmlns="http://www.w3.org/2000/svg" xmlns:xlink="http://www.w3.org/1999/xlink" x="0px" y="0px"
	 viewBox="0 0 156.8 119" style="enable-background:new 0 0 156.8 119;" xml:space="preserve">
<style type="text/css">
	.st0{fill:#070908;}
	.st1{fill:#0F0E0A;}
	.st2{fill:#FFF100;}
	.st3{fill:pink;}
	.st4{fill:#FFFFFF;}
	.st5{fill:#FCFDFE;}
</style>
<path class="st0" d="M2.6,30.7c0.7-0.8,1.4-1.5,2.1-2.3C4.9,28.3,5,28.2,5,28c0,0,0,0,0,0c0.9-0.2,1.7-0.6,2.6-0.5
	c5.1,0.7,10.2,1.3,15.4,1.9c1.4,0.3,2.8,0.2,4.2,0.5c1.2,0.3,2-0.7,1.7-2c-1.1-5.6-2.3-11.2-3.4-16.9c-0.2-1-0.4-1.9-0.2-3
	c0.3-1.4,1.1-2.1,2.5-2.2c1.4-0.1,2.2,0.4,2.6,1.8c1.3,4.5,2.4,9.1,3.2,13.7c0.2,1.3,0.4,2.5,0.6,3.8c0.7,4.4,3.3,6.9,7.5,7.9
	c16.6,3.9,33.1,8.7,49.5,13.3c9.6,2.7,19.1,5.5,28.8,7.5c6.6,1.3,13.3,2.4,20,3c2.8,0.3,5.5,0.8,8.2,1.7c3.3,1.1,5.7,3,6.8,6.4
	c0,1.4,0,2.9,0,4.3c-0.4,0.3-0.4,0.8-0.5,1.3c-0.4,2.2-1.2,4.4-2,6.5c-3.6,8.4-9.5,14.9-16.6,20.3c-7.1,5.4-14.9,9.6-23,13.5
	c-6.1,2.9-12.3,5.4-19,6.6c-1.2,0.2-2.5,0.1-3.7,0.6c-0.2,0-0.3,0-0.5,0c-1.3-0.4-2.6-0.4-3.8,0c-0.6,0-1.3,0-1.9,0
	c0-0.2-0.2-0.2-0.3-0.2c-6.6-0.6-12.5-3-17.9-6.7c-2.9-2-5.3-4.5-7.6-7c-5.4-6.7-9.7-14.1-13.3-22c-5.8-12.6-9.7-25.8-12.7-39.3
	c-0.3-1.5-0.3-3.1-1.3-4.4c-0.4-0.6-1-0.9-1.7-1c-2-0.4-4-0.7-6.1-0.7c-5.3-0.7-10.7-0.8-16-1.2c-1.9-0.2-3.3-1.2-4.3-2.7
	C2.6,32.1,2.6,31.4,2.6,30.7z M144.2,79.6c2-3.6,3.6-7.3,4.3-11.6c-3.5,1.7-6.9,3.1-10.6,4c-0.1-0.5-0.2-0.9-0.2-1.4
	c-0.6-4.3-3.8-7.6-8.1-8.5c-4-0.9-8.4,1.1-10.6,4.6c-1.5,2.3-1.6,4.9-1.4,7.5c-4.6-0.2-9.2-0.8-13.7-1.7c-1.3-0.3-2,0.1-2.6,1.2
	c-2.1,4.2-3.2,8.6-2.4,13.3c0.6,3.7,1.9,7,4.3,9.9c0.2,0.3,0.3,0.5,0.5,0.8c2.1,2.7,4.8,4.7,7.4,6.7c1.1,0.9,2.1,1,3.3,0.3
	c6.6-3.9,13.1-8,19.2-12.5C138.1,88.9,141.7,84.7,144.2,79.6z M69.4,104.4c5.5,4.4,11.7,7,18.8,7.4c4.6,0.3,9.1-0.6,13.5-1.8
	c2.8-0.8,5.6-1.7,8.3-3.1c-5-1.8-7.6-2.9-12.2-8.1c-0.2-0.3-0.4-0.6-0.6-0.9C91.6,90,92.3,80,98.8,73c0.4-0.4,0.7-0.8,1.1-1.3
	c-0.9-0.2-1.7-0.4-2.5-0.6c-14-3.7-27.2-9.5-40.1-16c-7.1-3.6-13.5-8-18.6-14.2c-0.1-0.1-0.2-0.1-0.3-0.1C38.3,42,38.8,43,39.2,44
	c0.7,1.3,1.2,2.7,1.6,4.1c0.8,3.3,1.7,6.6,2.6,9.9c3,10.7,6.8,21.1,12.5,30.8C59.4,94.8,63.8,100.2,69.4,104.4z"/>
<path class="st1" d="M85.9,118c1.3-0.4,2.6-0.4,3.8,0C88.5,118,87.2,118,85.9,118z"/>
<path class="st1" d="M120.7,37.3c-2,1.6-3.8,3.5-5.5,5.4c-1.8,2-3.8,2.5-6.4,1.8c-4-1-8.1-2.1-12.1-3.4c-1.8-0.5-2.9-1.7-3.3-3.6
	c-1.3-6.1-2.7-12.2-4-18.3c-0.6-2.7-1.4-5.4-2.3-8c-0.2-0.7-0.3-1.3-0.1-2c0.4-1.9,2.4-2.7,4.1-1.5c2.4,1.7,4.6,3.8,6.8,5.7
	c0.8,0.6,1.5,1.3,2.3,2c1.3,1.2,1.6,1.2,3.1,0.2c0.3-0.2,0.6-0.4,0.9-0.6c2.4-1.4,4.8-2.8,7.4-3.9c1.1-0.3,2.2-0.9,3.3-1
	c4,0.4,4.7,1,5.6,5c0.6,2.5,1.1,5.1,1.5,7.6c0.2,1.2,0.9,1.5,1.9,1.4c0.5-0.1,1-0.2,1.5-0.2c3.2-0.4,6.4-0.4,9.6-0.6
	c0.3,0.1,0.6,0.1,0.9,0.2c0.8,0.2,1.3,0.6,1.4,1.4c0.1,0.8-0.2,1.4-0.9,1.8c-1.3,0.7-2.7,1.4-4.1,2.2c-0.2,0.1-0.4,0.3-0.7,0.5
	c-0.2,0-0.3,0-0.5,0.1C127.6,31.6,124,34.2,120.7,37.3z M115.4,35.5c2.2-2.4,4.4-4.9,6.9-7.2c-0.5-0.3-0.9-0.1-1.2-0.1
	c-3.1,0.5-3.7,0.2-5-2.6c-1.2-2.6-2.4-5.1-3.6-7.7c-0.6-1.4-0.8-1.4-2-0.4c-2.3,2-4.5,4.2-6.7,6.5c-1.6,1.5-3.3,1.3-5,0.2
	c-0.5-0.3-0.9-0.6-1.4-0.9c-0.3-0.2-0.7-0.5-1.1-0.2c-0.4,0.3,0,0.7,0.1,0.9c1.6,4,3.3,7.9,4.9,11.9c0.4,1.1,1.1,1.5,2.3,1.5
	c2.3,0,4.7,0,6.9,0.3C112.8,38.1,114.3,37.4,115.4,35.5z"/>
<path class="st2" d="M135.2,23.2c-3.2,0.1-6.4,0.2-9.6,0.6c-0.5,0.1-1,0.1-1.5,0.2c-1.1,0.2-1.7-0.2-1.9-1.4
	c-0.5-2.5-0.9-5.1-1.5-7.6c-0.9-4-1.6-4.6-5.6-5c1.7-2.2,3.4-4.4,5.1-6.7c0-0.1,0.1-0.1,0.3-0.3c0.4,1.5,0.7,2.8,1.1,4.2
	c0.5,1.9,1,3.9,1.4,5.8c0.3,1.2,0.9,1.7,2.1,1.5c4.7-0.5,9.4-1,14-1.5c0.3,0,0.7-0.3,0.9,0c0.2,0.3-0.1,0.6-0.3,0.9
	C138.1,17.1,136.7,20.1,135.2,23.2z"/>
<path class="st3" d="M23,29.4c-5.1-0.6-10.2-1.2-15.4-1.9c-1-0.1-1.8,0.3-2.6,0.5c-0.1-0.2,0-0.4,0.2-0.5c3.4-5.1,7-10,11.2-14.4
	c0.2-0.2,0.4-0.4,0.6-0.6c1.6-1.4,3.3-0.9,3.8,1.2c0.6,2.4,0.9,4.8,1.2,7.2C22.4,23.7,22.7,26.6,23,29.4z"/>
<path class="st2" d="M111.6,11c-2.5,1.1-4.9,2.6-7.4,3.9c0.1-2.7,0.3-5.4,0.4-8.1c0-0.8,0.3-1,0.9-0.5C107.6,7.9,109.6,9.4,111.6,11
	z"/>
<path class="st2" d="M120.7,37.3c3.2-3.1,6.8-5.7,10.7-8c0.1-0.1,0.3-0.1,0.5-0.1c-2.5,2.9-5.4,5.5-8,8.3c-0.5,0.5-1,0.5-1.5,0.3
	C121.8,37.7,121.2,37.5,120.7,37.3z"/>
<path class="st3" d="M5,28c0,0.2-0.2,0.3-0.3,0.3C4.8,28.2,4.8,28,5,28z"/>
<path class="st3" d="M69.4,104.4c-5.6-4.3-9.9-9.6-13.5-15.6c-5.7-9.6-9.5-20-12.5-30.8c-0.9-3.3-1.8-6.6-2.6-9.9
	c-0.4-1.4-0.9-2.8-1.6-4.1c-0.5-1-1-2-0.8-3.2c0.1,0,0.3,0,0.3,0.1c5.1,6.2,11.6,10.7,18.6,14.2c12.9,6.5,26.1,12.2,40.1,16
	c0.8,0.2,1.5,0.4,2.5,0.6c-0.4,0.5-0.8,0.9-1.1,1.3c-6.5,7-7.2,17-1.7,24.8c0.2,0.3,0.4,0.6,0.6,0.9C88.4,101.7,79,103.8,69.4,104.4
	z"/>
<path class="st3" d="M58.1,104.1c-11.4-1.3-20.5-6.1-26-16.5c-3.5-6.7-4.7-13.9-4.8-21.3c-0.2-9.5,1.1-18.7,3.5-27.8
	c1.1,1.3,1,2.9,1.3,4.4c2.9,13.5,6.9,26.7,12.7,39.3C48.4,90,52.7,97.4,58.1,104.1z"/>
<path class="st3" d="M103.2,97c-2.4-2.9-3.7-6.3-4.3-9.9c-0.8-4.7,0.3-9.1,2.4-13.3c0.6-1.1,1.2-1.5,2.6-1.2
	c4.5,0.9,9.1,1.6,13.7,1.7c0.1,0.4,0.3,0.8,0.4,1.1c2,5.9,8.6,8.8,14.2,6.1c3.9-1.9,5.7-5.2,5.9-9.4c3.6-0.9,7-2.4,10.6-4
	c-0.7,4.2-2.3,8-4.3,11.6c-2.5,0.9-4.9,2.3-7.3,3.5C125.9,88.3,114.7,93.2,103.2,97z"/>
<path class="st4" d="M103.2,97c11.6-3.9,22.7-8.7,33.7-13.9c2.4-1.2,4.8-2.5,7.3-3.5c-2.6,5-6.1,9.3-10.6,12.6
	c-6.1,4.6-12.6,8.7-19.2,12.5c-1.2,0.7-2.2,0.6-3.3-0.3c-2.6-2.1-5.3-4.1-7.4-6.7C103.5,97.6,103.4,97.3,103.2,97z"/>
<path class="st5" d="M138,72.1c-0.2,4.3-2,7.5-5.9,9.4c-5.6,2.7-12.2-0.2-14.2-6.1c-0.1-0.4-0.3-0.8-0.4-1.1c-0.2-2.6,0-5.2,1.4-7.5
	c2.2-3.5,6.6-5.5,10.6-4.6c4.4,0.9,7.5,4.2,8.1,8.5C137.9,71.1,137.9,71.6,138,72.1z M130.8,72.2c0-1.8-1.3-3.1-3.1-3.1
	c-1.7,0-3.1,1.3-3.2,3c0,1.7,1.4,3.3,3.1,3.3C129.4,75.4,130.8,74,130.8,72.2z"/>
<path class="st4" d="M69.4,104.4c9.7-0.7,19.1-2.8,28.3-5.6c4.6,5.2,7.2,6.3,12.2,8.1c-2.7,1.3-5.5,2.3-8.3,3.1
	c-4.4,1.3-8.9,2.1-13.5,1.8C81,111.4,74.8,108.8,69.4,104.4z"/>
<path class="st3" d="M23,36.7c-0.4,3.1-0.8,3.3-3.8,3C14.8,39.2,10.7,38,7,35.5C12.3,35.9,17.7,36,23,36.7z"/>
<path class="st2" d="M103.8,24c2.1-2.3,4.3-4.5,6.7-6.5c1.2-1,1.4-1,2,0.4c1.2,2.6,2.4,5.1,3.6,7.7c1.3,2.9,1.9,3.1,5,2.6
	c0.3-0.1,0.7-0.2,1.2,0.1c-2.5,2.3-4.7,4.8-6.9,7.2c-3.3,0.1-6.3-0.9-8.9-2.9c-0.6-0.4-1.2-0.8-1.8-1.1c-1-0.5-1.3-1.2-1.2-2.2
	C103.6,27.5,103.7,25.8,103.8,24z"/>
<path class="st5" d="M103.8,24c-0.1,1.7-0.2,3.5-0.4,5.2c-0.1,1,0.2,1.8,1.2,2.2c0.6,0.3,1.3,0.7,1.8,1.1c2.6,2.1,5.6,3,8.9,2.9
	c-1.1,1.9-2.6,2.6-4.9,2.2c-2.3-0.4-4.6-0.3-6.9-0.3c-1.2,0-1.8-0.4-2.3-1.5c-1.6-4-3.3-7.9-4.9-11.9c-0.1-0.3-0.5-0.7-0.1-0.9
	c0.4-0.3,0.8,0,1.1,0.2c0.5,0.3,0.9,0.6,1.4,0.9C100.5,25.3,102.2,25.6,103.8,24z"/>
<path class="st1" d="M132.9,72.2c0,2.9-2.3,5.3-5.1,5.2c-2.8,0-5.2-2.6-5.1-5.4c0.1-2.8,2.4-5,5.2-5
	C130.7,67.1,132.9,69.3,132.9,72.2z"/>
</svg>
